<svg class="icon" viewBox="0 0 1220 1024" xmlns="http://www.w3.org/2000/svg" width="238.281" height="200"><defs><style/></defs><path d="M903.83 959.569c27.358-23.523 54.971-47.046 82.33-70.824 9.46-8.182 19.687-16.363 28.891-25.057-7.415-9.46-19.943-16.107-30.426-20.198-21.221-8.182-42.443-5.37-61.874 5.88-25.568 14.83-36.563 38.352-35.54 67.756.256 11.505 3.58 22.755 9.716 32.471 1.79 3.58 4.346 6.903 6.903 9.972m31.705 22.244c13.55 4.602 28.891 4.09 42.698 1.534 7.16-3.068 25.057-10.994 31.705-9.716l1.022.256 1.023.511c4.09 2.045 7.926 4.858 9.972 8.949 4.857 9.716 2.556 19.432-6.904 24.8l-3.068 1.79c-35.028 20.2-72.358 17.387-107.386-1.534-16.619-8.948-29.403-22.5-38.863-38.863l-2.301-3.835c-22.5-39.12-19.432-80.028 5.88-117.102 8.693-12.784 20.2-22.755 33.75-30.426l5.114-2.812c32.983-19.176 68.522-17.898 102.528-1.023 18.153 8.949 32.982 22.5 43.21 40.142l1.79 3.068c7.414 12.784-2.302 24.034-12.018 31.704-11.505 8.95-23.01 19.432-34.005 29.148-25.057 20.966-49.602 42.443-74.147 63.409zm262.839-177.442h3.58c10.994 0 18.409 7.414 18.409 18.409 0 15.34-14.574 19.176-27.358 19.176-16.62 0-32.472 9.971-43.977 21.221-14.318 14.062-20.455 32.216-20.455 51.903v89.488c0 10.228-6.392 18.41-17.13 18.41h-2.813c-10.738 0-17.13-8.182-17.13-18.41v-94.601c0-36.307 17.642-65.966 47.3-86.932 17.898-12.017 38.097-18.664 59.574-18.664zm-460.992 63.664c14.318-14.318 28.892-28.636 43.466-42.954 4.09-3.836 19.432-20.71 25.568-20.71h6.648l.767.255c8.437 1.79 14.83 7.16 14.83 16.108v3.58c0 6.136-7.16 13.295-11.25 17.642-8.438 8.948-17.387 17.642-26.08 26.59l-44.744 45.256c19.176 19.176 38.352 38.607 57.528 58.04 5.37 5.368 10.483 10.738 15.852 16.107 1.79 2.046 4.602 4.347 6.136 6.903 1.534 2.557 2.557 5.37 2.557 8.438v3.835l-.256.767c-2.045 8.438-7.414 15.341-16.874 15.341h-3.069c-6.136 0-13.04-6.903-17.13-10.994-8.693-8.182-16.875-16.62-25.568-25.057l-28.38-27.87v44.49c0 10.226-6.393 18.408-17.131 18.408h-2.813c-10.738 0-17.13-8.182-17.13-18.409V752.723c0-10.227 6.392-18.409 17.13-18.409h2.813c10.738 0 17.13 8.182 17.13 18.41v115.311zm-119.914-25.057c-5.625-2.557-16.108-3.58-21.988-3.835-30.938-1.278-53.182 16.364-66.477 43.466-4.603 9.46-6.648 19.431-6.648 29.659 0 31.704 16.62 53.948 45 67.5 10.227 4.857 23.778 5.88 35.028 5.88 9.972 0 24.034-6.136 32.727-10.227l1.534-.767h6.904l.767.255c8.437 1.79 14.83 7.16 14.83 16.108v3.58c0 22.5-41.165 27.613-56.762 28.892-55.483 3.835-96.903-26.591-112.755-79.517-2.813-9.204-4.09-18.409-4.09-27.87v-7.414c0-40.142 19.942-71.846 54.203-92.3 16.108-9.46 33.75-14.319 52.16-14.319h7.414c19.687 0 37.84 5.625 54.204 16.62l1.279 1.022.767 1.279c1.79 2.812 3.323 6.392 3.323 9.716v3.58c0 9.46-7.159 14.573-15.596 16.107h-3.068c-5.37.511-17.898-5.114-22.756-7.415zM279.97 913.29c0 28.125 13.807 48.835 37.585 63.41 11.25 6.902 23.523 9.97 36.562 9.97 27.87 0 48.324-14.062 62.642-37.584 6.903-11.25 9.972-23.523 9.972-36.563 0-26.08-12.529-46.022-34.006-60.596-11.761-7.926-25.057-12.017-39.119-12.017-30.937 0-53.182 15.597-66.733 43.466-4.858 9.46-6.903 19.431-6.903 29.914zm69.8-110.198h5.114c42.955 0 75.426 20.71 96.136 58.295 8.182 15.085 12.784 31.193 12.784 48.324v7.415c0 40.141-19.687 72.101-54.46 92.3-16.108 9.46-33.75 14.318-52.158 14.318h-7.415c-40.142 0-72.102-19.943-92.3-54.204-9.461-16.108-14.319-33.75-14.319-52.159v-7.414c0-40.142 19.943-71.847 54.204-92.301 16.108-9.972 33.75-14.574 52.415-14.574zM37.84 913.29c0 28.892 14.063 50.625 39.375 64.688 10.228 5.624 21.478 8.693 33.239 8.693 28.38 0 49.602-13.296 64.176-37.585 6.647-11.25 9.971-23.523 9.971-36.563 0-25.056-12.017-44.744-32.215-59.318-12.273-8.948-26.08-13.295-41.165-13.295-30.937 0-53.182 15.597-66.733 43.466-4.602 9.46-6.647 19.431-6.647 29.914zm146.506-82.584v-78.239c0-10.227 6.392-18.409 17.13-18.409h3.068c10.739 0 17.13 8.182 17.13 18.41V916.87c0 40.142-19.942 72.102-54.459 92.3-16.108 9.46-33.75 14.319-52.159 14.319h-7.67c-40.142 0-72.102-19.943-92.3-54.205-9.462-16.107-14.32-33.75-14.32-52.158v-7.415c0-40.142 19.943-72.102 54.204-92.3 16.108-9.46 33.75-14.319 52.16-14.319h7.414c27.358 0 50.369 10.483 69.8 27.614zM704.144 218.35h109.175v111.477h55.227c25.568 0 51.648-4.603 75.937-12.784 11.762-4.091 25.057-9.716 36.818-16.62-15.34-20.198-23.267-45.51-25.568-70.567-3.068-34.006 3.836-78.494 26.847-105.085l11.505-13.295 13.551 10.994c34.517 27.613 63.41 66.221 68.523 110.454 41.42-12.273 90-9.205 126.562 11.761l15.085 8.693-7.926 15.341c-30.938 60.34-95.625 79.005-158.778 75.681C956.5 579.883 750.933 691.36 501.39 691.36c-128.863 0-247.243-48.068-314.487-162.613l-1.022-1.79-9.716-19.943c-22.756-50.369-30.426-105.596-25.313-160.567l1.535-16.62h93.323V218.352h109.175V109.176h218.351V0h130.909v218.351z" fill="#394D54"/><path d="M1057.75 259.516c7.415-56.761-35.284-101.506-61.62-122.727-30.425 35.284-35.027 127.329 12.53 166.192-26.592 23.779-82.841 45-140.114 45H168.75c-5.625 60.085 4.858 115.312 28.892 162.613l7.926 14.574c5.114 8.437 10.483 16.874 16.62 24.8 28.635 1.79 55.226 2.557 79.516 2.046 47.556-1.023 86.676-6.648 116.079-16.875 4.346-1.534 9.204.767 10.738 5.114 1.534 4.346-.767 9.204-5.113 10.738a361.044 361.044 0 0 1-12.273 3.835c-23.267 6.648-48.068 10.995-80.284 13.04 1.79 0-2.045.256-2.045.256-1.023 0-2.557.256-3.58.256-12.528.767-26.335.767-40.141.767-15.341 0-30.17-.256-47.046-1.023l-.51.256c58.294 65.454 149.316 104.828 263.606 104.828 241.873 0 446.929-107.13 537.695-347.725 64.432 6.648 126.307-9.716 154.431-64.687-44.488-26.08-102.272-17.898-135.51-1.278z" fill="#00AADA"/><path d="M1057.75 259.516c7.415-56.761-35.284-101.506-61.62-122.727-30.425 35.284-35.027 127.329 12.53 166.192-26.592 23.779-82.841 45-140.114 45H210.17c-2.812 91.79 31.193 161.59 91.534 203.777 47.556-1.022 86.676-6.647 116.079-16.875 4.346-1.534 9.204.767 10.738 5.114 1.534 4.347-.767 9.204-5.113 10.739a361.044 361.044 0 0 1-12.273 3.835c-23.267 6.647-50.369 11.761-82.329 13.55l-.767-.766c82.329 42.187 201.732 42.187 338.52-10.483 153.409-58.807 296.079-171.306 395.794-299.658-1.79 1.023-3.068 1.79-4.602 2.302z" fill="#24B8EB"/><path d="M170.283 421.106c4.347 32.215 13.807 62.13 27.614 89.743l7.926 14.574c5.113 8.438 10.483 16.875 16.619 24.801 28.892 1.79 55.227 2.557 79.517 2.046 47.556-1.023 86.675-6.648 116.078-16.875 4.347-1.534 9.205.767 10.739 5.113 1.534 4.347-.767 9.205-5.114 10.739a361.044 361.044 0 0 1-12.272 3.835c-23.267 6.648-50.114 11.25-82.33 13.296-1.022 0-3.067 0-4.09.255-12.529.767-26.08 1.023-40.142 1.023-15.34 0-30.937-.256-47.557-1.023 58.296 65.454 150.085 104.83 264.374 104.83 207.101 0 387.1-78.495 491.673-252.102H170.283z" fill="#008BB8"/><path d="M216.561 421.106c12.273 56.505 42.188 100.738 85.398 130.908 47.556-1.023 86.675-6.648 116.078-16.875 4.347-1.534 9.205.767 10.739 5.114 1.534 4.346-.767 9.204-5.114 10.738a361.044 361.044 0 0 1-12.272 3.835c-23.267 6.648-50.625 11.25-82.84 13.296 82.328 42.187 201.22 41.676 338.009-10.994 82.84-31.705 162.357-79.006 233.947-136.022H216.561z" fill="#039BC6"/><path d="M343.123 244.43h7.415v78.75h-7.415v-78.75zm-14.318 0h7.67v78.75h-7.67v-78.75zm-14.318 0h7.67v78.75h-7.67v-78.75zm-14.318 0h7.67v78.75h-7.67v-78.75zm-14.318 0h7.67v78.75h-7.67v-78.75zm-14.063 0h7.415v78.75h-7.415v-78.75zm-7.926-7.926h94.602v94.602h-94.602v-94.602zM452.3 135.254h7.414v78.75H452.3v-78.75zm-14.318 0h7.67v78.75h-7.67v-78.75zm-14.319 0h7.67v78.75h-7.67v-78.75zm-14.318 0h7.67v78.75h-7.67v-78.75zm-14.318 0h7.67v78.75h-7.67v-78.75zm-14.062 0h7.415v78.75h-7.415v-78.75zm-7.926-7.925h94.601v94.602h-94.601v-94.602z" fill="#00ACD3"/><path d="M452.299 244.43h7.414v78.75H452.3v-78.75zm-14.318 0h7.67v78.75h-7.67v-78.75zm-14.319 0h7.67v78.75h-7.67v-78.75zm-14.318 0h7.67v78.75h-7.67v-78.75zm-14.318 0h7.67v78.75h-7.67v-78.75zm-14.062 0h7.415v78.75h-7.415v-78.75zm-7.926-7.926h94.601v94.602h-94.601v-94.602z" fill="#20C2EF"/><path d="M561.474 244.43h7.415v78.75h-7.415v-78.75zm-14.318 0h7.67v78.75h-7.67v-78.75zm-14.318 0h7.67v78.75h-7.67v-78.75zm-14.318 0h7.67v78.75h-7.67v-78.75zm-14.574 0h7.67v78.75h-7.67v-78.75zm-13.807 0h7.415v78.75h-7.415v-78.75zm-7.926-7.926h94.602v94.602h-94.602v-94.602z" fill="#00ACD3"/><path d="M561.474 135.255h7.415v78.75h-7.415v-78.75zm-14.318 0h7.67v78.75h-7.67v-78.75zm-14.318 0h7.67v78.75h-7.67v-78.75zm-14.318 0h7.67v78.75h-7.67v-78.75zm-14.574 0h7.67v78.75h-7.67v-78.75zm-13.807 0h7.415v78.75h-7.415v-78.75zm-7.926-7.926h94.602v94.602h-94.602v-94.602zM670.65 244.43h7.414v78.75h-7.414v-78.75zm-14.318 0h7.67v78.75h-7.67v-78.75zm-14.319 0h7.67v78.75h-7.67v-78.75zm-14.573 0h7.67v78.75h-7.67v-78.75zm-14.318 0h7.67v78.75h-7.67v-78.75zm-13.807 0h7.415v78.75h-7.415v-78.75zm-7.926-7.926h94.602v94.602h-94.602v-94.602z" fill="#20C2EF"/><path d="M670.65 135.255h7.414v78.75h-7.414v-78.75zm-14.318 0h7.67v78.75h-7.67v-78.75zm-14.319 0h7.67v78.75h-7.67v-78.75zm-14.573 0h7.67v78.75h-7.67v-78.75zm-14.318 0h7.67v78.75h-7.67v-78.75zm-13.807 0h7.415v78.75h-7.415v-78.75zm-7.926-7.926h94.602v94.602h-94.602v-94.602z" fill="#00ACD3"/><path d="M670.65 26.08h7.414v78.749h-7.414v-78.75zm-14.318 0h7.67v78.749h-7.67v-78.75zm-14.319 0h7.67v78.749h-7.67v-78.75zm-14.573 0h7.67v78.749h-7.67v-78.75zm-14.318 0h7.67v78.749h-7.67v-78.75zm-13.807 0h7.415v78.749h-7.415v-78.75zm-7.926-7.927h94.602v94.602h-94.602V18.153z" fill="#20C2EF"/><path d="M779.825 244.43h7.415v78.75h-7.415v-78.75zm-14.318 0h7.67v78.75h-7.67v-78.75zm-14.574 0h7.67v78.75h-7.67v-78.75zm-14.318 0h7.67v78.75h-7.67v-78.75zm-14.318 0h7.67v78.75h-7.67v-78.75zm-14.062 0h7.414v78.75h-7.414v-78.75zm-7.67-7.926h94.601v94.602h-94.602v-94.602z" fill="#00ACD3"/><path d="M461.759 484.514c14.318 0 26.08 11.762 26.08 26.08s-11.762 26.08-26.08 26.08-26.08-11.762-26.08-26.08 11.506-26.08 26.08-26.08" fill="#D4EDF1"/><path d="M461.759 491.93c2.3 0 4.602.51 6.647 1.277-2.3 1.279-3.835 3.836-3.835 6.648 0 4.091 3.324 7.67 7.67 7.67 2.813 0 5.37-1.533 6.648-4.09 1.023 2.3 1.534 4.602 1.534 7.159 0 10.227-8.437 18.664-18.664 18.664s-18.665-8.437-18.665-18.664 8.182-18.665 18.665-18.665M0 430.31h1214.226c-26.335-6.648-83.607-15.852-74.147-50.369-48.068 55.738-163.891 39.12-193.294 11.506-32.472 47.3-222.187 29.403-235.482-7.415-40.909 47.812-167.47 47.812-208.38 0-13.295 36.818-203.01 54.716-235.481 7.415-29.148 27.357-145.227 43.977-193.295-11.506 9.46 34.773-47.812 43.721-74.147 50.37" fill="#394D54"/><path d="M531.048 672.695c-64.687-30.682-100.227-72.357-119.914-117.869-24.034 6.904-52.926 11.25-86.42 13.04-12.528.767-25.824 1.023-39.886 1.023-16.108 0-32.983-.511-50.88-1.534 59.317 59.318 132.186 104.829 267.186 105.596 10.227.255 19.943 0 29.914-.256z" fill="#BFDBE0"/><path d="M435.168 596.758c-8.949-12.017-17.642-27.358-24.034-41.932-24.034 6.904-52.926 11.25-86.42 13.04 23.011 12.529 55.994 24.034 110.454 28.892z" fill="#D4EDF1"/></svg>